<?xml version="1.0" encoding="UTF-8"?>
<svg id="Layer_2" data-name="Layer 2" xmlns="http://www.w3.org/2000/svg" xmlns:xlink="http://www.w3.org/1999/xlink" viewBox="0 0 735.19 406.9">
  <defs>
    <style>
      .cls-1 {
        fill: #3664b7;
      }

      .cls-2 {
        fill: #00688f;
      }

      .cls-3 {
        fill: #00658b;
      }

      .cls-4 {
        fill: #5d8ff4;
      }

      .cls-5 {
        fill: #c5d2fc;
      }

      .cls-6 {
        fill: #82ece2;
      }

      .cls-7 {
        fill: #97f2f5;
      }

      .cls-8 {
        fill: #fff;
      }

      .cls-9 {
        fill: none;
      }

      .cls-10 {
        opacity: .84;
      }

      .cls-11 {
        fill: #ccd9ff;
      }

      .cls-12 {
        opacity: .8;
      }

      .cls-13 {
        clip-path: url(#clippath-1);
      }

      .cls-14 {
        fill: #172c71;
      }

      .cls-15 {
        isolation: isolate;
      }

      .cls-16 {
        fill: #0a104e;
      }

      .cls-17 {
        fill: #4987e5;
      }

      .cls-18 {
        fill: #77d5ca;
      }

      .cls-19 {
        fill: #6645ff;
      }

      .cls-20 {
        fill: #223f89;
      }

      .cls-21 {
        clip-path: url(#clippath);
      }

      .cls-22 {
        opacity: .7;
      }
    </style>
    <clipPath id="clippath">
      <circle class="cls-9" cx="367.59" cy="203.45" r="172.93" transform="translate(-36.19 319.52) rotate(-45)"/>
    </clipPath>
    <clipPath id="clippath-1">
      <path class="cls-9" d="M383.79,294.61l-.05,17.65c0,.77-.06,1.53-.19,2.29l.05-17.65c.12-.76.19-1.53.19-2.29Z"/>
    </clipPath>
  </defs>
  <g id="OBJECTS">
    <g>
      <g>
        <path class="cls-6" d="M724,202.75h-414v1.4h414c.35,2.77,2.71,4.92,5.57,4.92,3.1,0,5.62-2.52,5.62-5.62s-2.52-5.62-5.62-5.62c-2.86,0-5.22,2.15-5.57,4.92ZM725.35,203.45c0-2.32,1.89-4.21,4.21-4.21s4.21,1.89,4.21,4.21-1.89,4.21-4.21,4.21-4.21-1.89-4.21-4.21Z"/>
        <path class="cls-6" d="M580.54,161.43h-270.54v1.4h269.96l21.24,21.24h104.42c.35,2.77,2.71,4.92,5.57,4.92,3.1,0,5.62-2.52,5.62-5.62s-2.52-5.62-5.62-5.62c-2.86,0-5.22,2.15-5.57,4.92h-103.84l-21.24-21.24ZM706.98,183.37c0-2.32,1.89-4.21,4.21-4.21s4.21,1.89,4.21,4.21-1.89,4.21-4.21,4.21-4.21-1.89-4.21-4.21Z"/>
        <path class="cls-6" d="M310,125.55v1.4h279.17l35,34.99h56.07c.35,2.77,2.71,4.92,5.57,4.92,3.1,0,5.62-2.52,5.62-5.62s-2.52-5.62-5.62-5.62c-2.86,0-5.22,2.15-5.57,4.92h-55.48l-35-34.99h-279.75ZM681.58,161.24c0-2.32,1.89-4.21,4.21-4.21s4.21,1.89,4.21,4.21-1.89,4.21-4.21,4.21-4.21-1.89-4.21-4.21Z"/>
        <path class="cls-6" d="M579.96,244.06h-269.96v1.4h270.54l21.24-21.24h103.84c.35,2.77,2.71,4.92,5.57,4.92,3.1,0,5.62-2.52,5.62-5.62s-2.52-5.62-5.62-5.62c-2.86,0-5.22,2.15-5.57,4.92h-104.42l-21.24,21.24ZM706.98,223.52c0-2.32,1.89-4.21,4.21-4.21s4.21,1.89,4.21,4.21-1.89,4.21-4.21,4.21-4.21-1.89-4.21-4.21Z"/>
        <path class="cls-6" d="M589.17,279.94h-279.17v1.4h279.75l35-35h55.48c.35,2.77,2.71,4.92,5.57,4.92,3.1,0,5.62-2.52,5.62-5.62s-2.52-5.62-5.62-5.62c-2.86,0-5.22,2.15-5.57,4.92h-56.07l-35,35ZM681.58,245.65c0-2.32,1.89-4.21,4.21-4.21s4.21,1.89,4.21,4.21-1.89,4.21-4.21,4.21-4.21-1.89-4.21-4.21Z"/>
        <path class="cls-6" d="M614.53,173.05h50.67c.18-1.6,1.52-2.85,3.17-2.85,1.77,0,3.2,1.43,3.2,3.2s-1.43,3.2-3.2,3.2c-1.65,0-2.99-1.25-3.17-2.85h-50.96l-29.93-29.93h-274.31v-.7h274.6l29.93,29.93Z"/>
        <path class="cls-6" d="M554.94,193.06h129.97c.18-1.6,1.52-2.85,3.17-2.85,1.77,0,3.2,1.43,3.2,3.2s-1.43,3.2-3.2,3.2c-1.65,0-2.99-1.25-3.17-2.85h-130.26l-11.5-11.5h-233.15v-.7h233.44l11.5,11.5Z"/>
        <path class="cls-6" d="M614.24,233.14h50.96c.18-1.6,1.52-2.85,3.17-2.85,1.77,0,3.2,1.43,3.2,3.2s-1.43,3.2-3.2,3.2c-1.65,0-2.99-1.25-3.17-2.85h-50.67l-29.93,29.93h-274.6v-.7h274.31l29.93-29.93Z"/>
        <path class="cls-6" d="M554.65,213.13h130.26c.18-1.6,1.52-2.85,3.17-2.85,1.77,0,3.2,1.43,3.2,3.2s-1.43,3.2-3.2,3.2c-1.65,0-2.99-1.25-3.17-2.85h-129.97l-11.5,11.5h-233.44v-.7h233.15l11.5-11.5Z"/>
      </g>
      <g>
        <path class="cls-6" d="M5.62,197.83c-3.1,0-5.62,2.52-5.62,5.62s2.52,5.62,5.62,5.62c2.86,0,5.22-2.15,5.57-4.92h414v-1.4H11.19c-.35-2.77-2.71-4.92-5.57-4.92ZM5.62,207.66c-2.32,0-4.21-1.89-4.21-4.21s1.89-4.21,4.21-4.21,4.21,1.89,4.21,4.21-1.89,4.21-4.21,4.21Z"/>
        <path class="cls-6" d="M133.41,182.67H29.57c-.35-2.77-2.71-4.92-5.57-4.92-3.1,0-5.62,2.52-5.62,5.62s2.52,5.62,5.62,5.62c2.86,0,5.22-2.15,5.57-4.92h104.42l21.24-21.24h269.96v-1.4H154.65l-21.24,21.24ZM24,187.59c-2.32,0-4.21-1.89-4.21-4.21s1.89-4.21,4.21-4.21,4.21,1.89,4.21,4.21-1.89,4.21-4.21,4.21Z"/>
        <path class="cls-6" d="M145.44,125.55l-35,34.99h-55.48c-.35-2.77-2.71-4.92-5.57-4.92-3.1,0-5.62,2.52-5.62,5.62s2.52,5.62,5.62,5.62c2.86,0,5.22-2.15,5.57-4.92h56.07l35-34.99h279.17v-1.4H145.44ZM49.39,165.46c-2.32,0-4.21-1.89-4.21-4.21s1.89-4.21,4.21-4.21,4.21,1.89,4.21,4.21-1.89,4.21-4.21,4.21Z"/>
        <path class="cls-6" d="M133.99,222.82H29.57c-.35-2.77-2.71-4.92-5.57-4.92-3.1,0-5.62,2.52-5.62,5.62s2.52,5.62,5.62,5.62c2.86,0,5.22-2.15,5.57-4.92h103.84l21.24,21.24h270.54v-1.4H155.23l-21.24-21.24ZM24,227.74c-2.32,0-4.21-1.89-4.21-4.21s1.89-4.21,4.21-4.21,4.21,1.89,4.21,4.21-1.89,4.21-4.21,4.21Z"/>
        <path class="cls-6" d="M111.03,244.95h-56.07c-.35-2.77-2.71-4.92-5.57-4.92-3.1,0-5.62,2.52-5.62,5.62s2.52,5.62,5.62,5.62c2.86,0,5.22-2.15,5.57-4.92h55.48l35,35h279.75v-1.4H146.02l-35-35ZM49.39,249.87c-2.32,0-4.21-1.89-4.21-4.21s1.89-4.21,4.21-4.21,4.21,1.89,4.21,4.21-1.89,4.21-4.21,4.21Z"/>
        <path class="cls-6" d="M120.66,173.05h-50.67c-.18-1.6-1.52-2.85-3.17-2.85-1.77,0-3.2,1.43-3.2,3.2s1.43,3.2,3.2,3.2c1.65,0,2.99-1.25,3.17-2.85h50.96l29.93-29.93h274.31v-.7H150.59l-29.93,29.93Z"/>
        <path class="cls-6" d="M180.25,193.06H50.28c-.18-1.6-1.52-2.85-3.17-2.85-1.77,0-3.2,1.43-3.2,3.2s1.43,3.2,3.2,3.2c1.65,0,2.99-1.25,3.17-2.85h130.26l11.5-11.5h233.15v-.7h-233.44l-11.5,11.5Z"/>
        <path class="cls-6" d="M120.95,233.14h-50.96c-.18-1.6-1.52-2.85-3.17-2.85-1.77,0-3.2,1.43-3.2,3.2s1.43,3.2,3.2,3.2c1.65,0,2.99-1.25,3.17-2.85h50.67l29.93,29.93h274.6v-.7H150.88l-29.93-29.93Z"/>
        <path class="cls-6" d="M180.54,213.13H50.28c-.18-1.6-1.52-2.85-3.17-2.85-1.77,0-3.2,1.43-3.2,3.2s1.43,3.2,3.2,3.2c1.65,0,2.99-1.25,3.17-2.85h129.97l11.5,11.5h233.44v-.7h-233.15l-11.5-11.5Z"/>
      </g>
      <circle class="cls-16" cx="367.59" cy="203.45" r="202.04"/>
      <g>
        <g class="cls-21">
          <circle class="cls-4" cx="367.59" cy="203.45" r="172.93" transform="translate(-36.19 319.52) rotate(-45)"/>
          <g>
            <g>
              <path class="cls-18" d="M556.31,258.69h-21.74l-148.01-85.45c-10.83-6.25-28.34-6.25-39.1,0l-147.05,85.45h-21.53v19.17h0c.02,4.1,2.74,8.2,8.16,11.32l161.59,93.3c10.83,6.25,28.34,6.25,39.1,0l160.54-93.3c5.38-3.13,8.06-7.22,8.03-11.32h0v-19.17Z"/>
              <path class="cls-6" d="M548.15,247.37c10.83,6.25,10.89,16.39.13,22.65l-160.54,93.3c-10.76,6.25-28.27,6.25-39.1,0l-161.59-93.3c-10.83-6.25-10.89-16.39-.13-22.65l160.54-93.3c10.76-6.25,28.27-6.25,39.1,0l161.59,93.3Z"/>
            </g>
            <g>
              <path class="cls-14" d="M243.85,145.48l38.97-22.5.17,59.2-38.97,22.5-.17-59.2ZM263.49,190.22c7.67-4.43,13.87-15.17,13.85-23.98-.02-7.12-4.1-10.81-9.71-9.63-1.34.28-2.75.83-4.23,1.69-7.67,4.43-13.87,15.17-13.85,23.99.02,7.12,4.1,10.81,9.71,9.63,1.34-.28,2.76-.84,4.23-1.69M279.45,137.24v-2.56s-32.16,18.57-32.16,18.57v2.56s32.16-18.57,32.16-18.57M247.3,159.14v4.34s9.21-5.31,9.21-5.31v-4.34s-9.21,5.31-9.21,5.31M279.47,144.92v-4.34s-9.21,5.31-9.21,5.31v4.34s9.21-5.31,9.21-5.31M258.79,156.86l9.2-5.31v-4.34s-9.21,5.31-9.21,5.31v4.34M247.27,148.63v2.56s11.61-6.7,11.61-6.7v-2.56s-11.61,6.7-11.61,6.7"/>
              <g class="cls-15">
                <path class="cls-8" d="M267.63,156.61c5.61-1.18,9.69,2.51,9.71,9.63.02,8.82-6.18,19.55-13.85,23.98-1.48.85-2.9,1.41-4.23,1.69l1.42-5.96c.88-.19,1.82-.55,2.8-1.12,5.08-2.93,9.19-10.04,9.17-15.88-.01-4.72-2.71-7.16-6.43-6.38l1.41-5.96Z"/>
                <path class="cls-17" d="M254.24,179.57c.01,4.72,2.71,7.16,6.43,6.38l-1.42,5.96c-5.61,1.18-9.69-2.51-9.71-9.63l4.69-2.71Z"/>
                <path class="cls-14" d="M266.22,162.57c3.72-.78,6.41,1.66,6.43,6.38.02,5.84-4.09,12.95-9.17,15.88-.98.56-1.92.93-2.8,1.12-3.72.78-6.42-1.66-6.43-6.38-.02-5.84,4.09-12.95,9.17-15.89.98-.56,1.92-.93,2.8-1.12Z"/>
                <path class="cls-1" d="M263.4,158.3c1.48-.85,2.89-1.4,4.23-1.69l-1.41,5.96c-.88.18-1.83.55-2.8,1.12-5.08,2.93-9.19,10.05-9.17,15.89l-4.69,2.71c-.02-8.82,6.18-19.56,13.85-23.99Z"/>
                <polygon class="cls-8" points="267.98 147.2 267.99 151.54 258.79 156.86 258.78 152.52 267.98 147.2"/>
                <polygon class="cls-8" points="256.5 153.83 256.51 158.17 247.31 163.48 247.3 159.14 256.5 153.83"/>
                <polygon class="cls-11" points="279.44 134.68 279.45 137.24 247.29 155.81 247.28 153.25 279.44 134.68"/>
                <polygon class="cls-11" points="258.87 141.94 258.87 144.5 247.28 151.2 247.27 148.63 258.87 141.94"/>
              </g>
              <polygon class="cls-8" points="279.46 140.58 279.47 144.92 270.27 150.23 270.25 145.89 279.46 140.58"/>
            </g>
            <path class="cls-18" d="M472.65,260.25c3.15,1.82,3.17,4.76.04,6.58l-74.76,43.44c-3.12,1.82-8.21,1.82-11.36,0l-124.04-71.62c-3.14-1.82-3.16-4.77-.04-6.58l74.76-43.44c3.13-1.82,8.22-1.82,11.36,0l124.04,71.62Z"/>
            <g>
              <g>
                <path class="cls-8" d="M474.86,137.04l-124.04-71.62c-1.53-.88-2.92-.99-3.95-.45h0s-.06.03-.06.03c-.01,0-.03.01-.04.02l-2.46,1.38,1.08.4c-.19.54-.29,1.16-.29,1.88l-.25,86.46c-.01,3.62,2.54,8.02,5.68,9.84l124.04,71.62c.56.32,1.1.54,1.61.66l-.13,1.18,2.49-1.39h0c1.08-.57,1.75-1.85,1.76-3.71l.25-86.46c.01-3.62-2.53-8.03-5.68-9.85Z"/>
                <path class="cls-20" d="M472.35,138.45c3.15,1.82,5.69,6.23,5.68,9.85l-.25,86.46c-.01,3.62-2.57,5.08-5.72,3.26l-124.04-71.62c-3.14-1.82-5.69-6.22-5.68-9.84l.25-86.46c.01-3.62,2.57-5.08,5.72-3.26l124.04,71.62Z"/>
                <polygon class="cls-7" points="471.77 145.33 471.52 230.48 348.62 159.52 348.86 74.38 471.77 145.33"/>
              </g>
              <g>
                <g>
                  <path class="cls-7" d="M475.02,248.11h0s0-6.7,0-6.7l-4.13,2.42-122.28-70.6c-3.14-1.82-8.23-1.82-11.36,0l-71.82,41.73-5.27-1.87v6.86h0c0,1.19.79,2.39,2.37,3.3l124.04,71.62c3.15,1.82,8.24,1.82,11.36,0l74.76-43.44c1.58-.92,2.35-2.12,2.33-3.32Z"/>
                  <path class="cls-20" d="M312.89,245.65l19.42,11.21-1.29,1.04c-.43.35-1.08.33-1.76-.06l-13.34-7.7c-.68-.39-1.32-1.11-1.76-1.97l-1.28-2.52Z"/>
                </g>
                <g>
                  <path class="cls-8" d="M472.65,238.16c3.15,1.82,3.17,4.76.04,6.58l-74.76,43.44c-3.12,1.82-8.21,1.82-11.36,0l-124.04-71.62c-3.14-1.82-3.16-4.77-.04-6.58l74.76-43.44c3.13-1.82,8.22-1.82,11.36,0l124.04,71.62Z"/>
                  <g>
                    <path class="cls-7" d="M459.41,238.44c.94.54.95,1.43.02,1.98l-40.34,23.44c-.94.55-2.47.54-3.41,0l-113.78-65.69c-.94-.54-.95-1.43-.01-1.97l40.34-23.44c.94-.55,2.46-.55,3.41,0l113.78,65.69Z"/>
                    <g>
                      <polygon class="cls-20" points="326.6 203.07 321.35 206.12 315.24 202.6 320.49 199.54 326.6 203.07"/>
                      <polygon class="cls-20" points="317.93 198.06 312.68 201.11 305.87 197.18 311.12 194.13 317.93 198.06"/>
                      <g class="cls-15">
                        <polygon class="cls-20" points="345.69 181.93 340.45 184.98 333.63 181.04 338.88 178 345.69 181.93"/>
                        <polygon class="cls-20" points="340.98 187.25 335.74 190.3 326.69 185.08 331.94 182.03 340.98 187.25"/>
                        <polygon class="cls-20" points="336.03 192.44 330.79 195.49 319.75 189.11 324.99 186.06 336.03 192.44"/>
                        <polygon class="cls-20" points="334.4 199.53 329.15 202.58 312.81 193.15 318.06 190.1 334.4 199.53"/>
                        <polygon class="cls-20" points="335.27 208.07 330.02 211.13 323.91 207.6 329.16 204.55 335.27 208.07"/>
                        <polygon class="cls-20" points="344.13 213.19 338.88 216.24 332.58 212.61 337.83 209.56 344.13 213.19"/>
                        <polygon class="cls-20" points="446.07 234.02 442.7 235.98 349.95 182.43 353.32 180.47 446.07 234.02"/>
                        <polygon class="cls-20" points="434.74 233.34 429.49 236.39 343.01 186.46 348.26 183.41 434.74 233.34"/>
                        <polygon class="cls-20" points="424.37 235.4 419.13 238.45 338.3 191.78 343.55 188.73 424.37 235.4"/>
                        <polygon class="cls-20" points="455.44 239.43 452.07 241.39 445.26 237.46 448.63 235.5 455.44 239.43"/>
                        <polygon class="cls-20" points="387.74 238.37 382.49 241.42 341.44 217.72 346.69 214.67 387.74 238.37"/>
                        <polygon class="cls-20" points="418.71 240.17 413.47 243.22 333.36 196.97 338.6 193.92 418.71 240.17"/>
                        <polygon class="cls-20" points="405.93 240.83 400.68 243.88 331.71 204.06 336.96 201.01 405.93 240.83"/>
                        <polygon class="cls-20" points="434.06 240.99 428.82 244.04 421.69 239.93 426.94 236.88 434.06 240.99"/>
                        <polygon class="cls-20" points="450.38 242.37 445.13 245.42 432.06 237.87 437.3 234.82 450.38 242.37"/>
                        <polygon class="cls-20" points="397.71 244.12 392.46 247.18 385.05 242.9 390.3 239.85 397.71 244.12"/>
                        <polygon class="cls-20" points="443.44 246.4 438.19 249.45 431.38 245.52 436.63 242.47 443.44 246.4"/>
                        <polygon class="cls-20" points="436.49 250.44 431.25 253.49 416.03 244.7 421.28 241.65 436.49 250.44"/>
                        <polygon class="cls-20" points="429.56 254.47 424.31 257.52 403.25 245.36 408.5 242.31 429.56 254.47"/>
                        <polygon class="cls-20" points="422.62 258.5 417.37 261.56 395.02 248.66 400.27 245.61 422.62 258.5"/>
                      </g>
                      <polygon class="cls-20" points="350.75 178.99 347.38 180.95 340.57 177.01 343.94 175.05 350.75 178.99"/>
                    </g>
                  </g>
                  <g>
                    <path class="cls-7" d="M331.63,253.73c.68.39,1.02.94.93,1.49l-.26,1.64-19.42-11.21,2.82-.15c.96-.05,1.9.15,2.58.54l13.34,7.7Z"/>
                    <path class="cls-7" d="M373.32,245.21c.94.54.95,1.43.01,1.98l-22.33,12.98c-.94.54-2.47.54-3.42,0l-40.47-23.37c-.94-.54-.94-1.43,0-1.98l22.33-12.98c.94-.54,2.47-.55,3.41,0l40.47,23.37Z"/>
                  </g>
                </g>
                <g>
                  <polygon class="cls-20" points="453.78 257.89 453.79 259.87 439.23 268.27 439.22 266.3 453.78 257.89"/>
                  <polygon class="cls-20" points="462.72 252.73 462.72 254.71 456.46 258.32 456.46 256.35 462.72 252.73"/>
                  <polygon class="cls-20" points="471.65 247.57 471.66 249.55 465.4 253.16 465.4 251.19 471.65 247.57"/>
                </g>
              </g>
            </g>
            <g class="cls-12">
              <g class="cls-15">
                <polygon class="cls-8" points="421.45 88.55 421.34 138.15 433.49 145.17 433.6 95.57 421.45 88.55"/>
                <polygon class="cls-7" points="433.49 145.17 445.4 138.25 445.51 88.64 433.6 95.57 433.49 145.17"/>
                <polygon class="cls-8" points="433.6 95.57 445.51 88.64 433.37 81.63 421.45 88.55 433.6 95.57"/>
              </g>
              <g class="cls-15">
                <polygon class="cls-17" points="439.23 121.46 439.16 148.44 451.31 155.46 451.37 128.47 439.23 121.46"/>
                <polygon class="cls-1" points="451.31 155.46 463.22 148.54 463.29 121.55 451.37 128.47 451.31 155.46"/>
                <polygon class="cls-17" points="451.37 128.47 463.29 121.55 451.14 114.54 439.23 121.46 451.37 128.47"/>
              </g>
              <g class="cls-15">
                <polygon class="cls-8" points="457.08 118.76 456.98 158.73 469.13 165.75 469.22 125.78 457.08 118.76"/>
                <polygon class="cls-7" points="469.13 165.75 481.04 158.82 481.13 118.85 469.22 125.78 469.13 165.75"/>
                <polygon class="cls-8" points="469.22 125.78 481.13 118.85 468.99 111.84 457.08 118.76 469.22 125.78"/>
              </g>
              <g class="cls-15">
                <polygon class="cls-17" points="474.84 150.29 474.81 169.02 486.95 176.04 486.99 157.3 474.84 150.29"/>
                <polygon class="cls-1" points="486.95 176.04 498.87 169.11 498.9 150.38 486.99 157.3 486.95 176.04"/>
                <polygon class="cls-17" points="486.99 157.3 498.9 150.38 486.76 143.36 474.84 150.29 486.99 157.3"/>
              </g>
            </g>
            <g>
              <path class="cls-18" d="M383.43,306.3c-19.54-11.28-49.02-13.31-72.07-6.11-1.3.41-1.68,2.07-.69,3.01l5.26,4.96c.91.86.62,2.37-.54,2.85-.93.39-1.84.79-2.73,1.23-1.2.59-1.28,2.27-.12,2.94l8.59,4.96c.97.56,2.15.6,3.16.11.98-.48,2.02-.91,3.08-1.29,9.58-3.4,22.33-2.7,30.66,2.11,4.28,2.47,6.69,5.62,7.23,8.85.27,1.61,1.54,2.86,3.17,2.95l12.84.72c1.05.06,1.81,1.07,1.51,2.08-.48,1.58-1.22,3.15-2.23,4.66-.69,1.04-.15,2.45,1.05,2.79l10.96,3.16c1.63.47,3.38-.16,4.35-1.55,2.27-3.22,3.69-6.6,4.24-10.02,1.64-10.15-4.27-20.65-17.71-28.41Z"/>
              <g class="cls-22">
                <polygon class="cls-1" points="318.3 273.24 318.25 290.88 308.82 281.99 308.87 264.35 318.3 273.24"/>
                <path class="cls-1" d="M383.79,294.61h0c0-.27-.02-.54-.03-.8,0-.13,0-.27-.02-.4-.02-.2-.05-.4-.07-.6-.02-.2-.04-.4-.07-.6-.12-.74-.3-1.48-.54-2.21-.02-.06-.03-.12-.05-.18-.08-.25-.19-.51-.29-.76-.05-.14-.1-.28-.16-.42-.06-.15-.14-.31-.21-.46-.11-.24-.21-.48-.33-.71-.02-.04-.04-.08-.07-.12-.38-.74-.82-1.46-1.32-2.18-.74-1.06-1.62-2.09-2.62-3.1-.07-.07-.13-.14-.2-.21-1.82-1.78-4.05-3.46-6.69-4.99-.84-.49-1.72-.95-2.61-1.38-.08-.04-.16-.08-.24-.12-.86-.41-1.74-.8-2.63-1.17-.13-.05-.25-.11-.38-.16-.11-.04-.22-.09-.33-.14-.84-.33-1.7-.65-2.58-.94-.07-.02-.14-.04-.21-.07-.79-.26-1.59-.51-2.4-.74-.13-.04-.26-.07-.38-.1-.22-.06-.45-.12-.67-.18-.8-.21-1.6-.41-2.42-.59-.22-.05-.44-.1-.67-.15-.12-.03-.24-.06-.36-.08-.85-.17-1.7-.33-2.56-.47-.2-.03-.41-.06-.61-.1-.36-.06-.73-.12-1.09-.17-.61-.09-1.22-.16-1.83-.23-.06,0-.12-.02-.18-.02-.72-.08-1.44-.15-2.17-.21-.31-.03-.62-.04-.93-.06-.21-.01-.41-.03-.62-.04-.89-.05-1.79-.1-2.68-.12-.12,0-.24,0-.36,0-.19,0-.39,0-.58,0-.94-.01-1.88,0-2.82.02-.15,0-.3,0-.44,0-.07,0-.15,0-.22,0-.96.03-1.92.09-2.88.16-.25.02-.5.04-.75.06-.38.03-.77.06-1.15.1-.4.04-.79.09-1.18.14-.36.04-.71.08-1.07.13-.85.11-1.69.24-2.52.38-.21.03-.41.06-.62.1-.04,0-.09.01-.13.02-.94.17-1.87.37-2.8.58-.21.05-.42.1-.62.14-.96.23-1.92.47-2.86.74-.12.04-.24.07-.37.11-.48.14-.95.28-1.42.43-.5.16-.99.33-1.48.5l-.05,17.65c.95-.34,1.92-.64,2.9-.93.12-.04.24-.08.36-.11.94-.27,1.89-.52,2.86-.74.21-.05.42-.1.63-.14.97-.22,1.94-.42,2.93-.6.21-.04.41-.06.62-.1.84-.14,1.68-.27,2.52-.38.35-.05.71-.09,1.07-.13.77-.09,1.55-.17,2.33-.24.25-.02.5-.04.75-.06,1.03-.08,2.06-.13,3.1-.16.15,0,.3,0,.44,0,.94-.02,1.88-.03,2.82-.02.19,0,.39,0,.58,0,1.02.02,2.03.06,3.04.13.21.01.41.03.62.04,1.04.07,2.07.16,3.1.28.06,0,.12.02.18.02.98.11,1.96.25,2.93.4.2.03.41.06.61.1.98.16,1.96.35,2.92.55.22.05.44.1.66.15.81.18,1.62.38,2.42.59.22.06.45.12.67.18.94.26,1.87.54,2.78.85.07.02.14.04.21.07.99.33,1.95.69,2.9,1.07.13.05.25.11.38.16.9.37,1.78.76,2.63,1.17.08.04.16.08.24.12.89.44,1.77.9,2.61,1.38.79.45,1.52.93,2.24,1.4.44.29.86.59,1.27.89.55.41,1.07.82,1.57,1.24.43.36.84.72,1.23,1.09.13.12.27.24.39.36.07.07.13.14.2.21,1,1,1.88,2.03,2.62,3.09.39.56.73,1.12,1.05,1.69.33.59.63,1.18.88,1.78.29.7.53,1.4.71,2.11.02.09.05.17.07.26.08.31.13.61.19.92.02.09.04.18.06.28.03.2.05.4.07.6.02.2.06.4.07.6.01.13,0,.27.02.4.01.27.03.53.03.8,0-.64,0-1.3,0-1.98l.02-6.2c0-3.3.02-6.63.03-9.46Z"/>
                <g class="cls-15">
                  <g class="cls-13">
                    <g class="cls-15">
                      <path class="cls-3" d="M383.79,294.61l-.05,17.65c0,.13,0,.26,0,.38l.05-17.65c0-.13,0-.26,0-.38"/>
                      <path class="cls-2" d="M383.79,294.99l-.05,17.65c-.02.64-.08,1.28-.18,1.91l.05-17.65c.1-.64.16-1.27.18-1.91"/>
                    </g>
                  </g>
                </g>
                <path class="cls-17" d="M401.73,295.93c-.01.16-.02.32-.03.48-.04.5-.1,1-.18,1.5-.06.39-.15.77-.23,1.16-.07.31-.14.61-.22.92-.06.24-.13.49-.21.73-.09.31-.2.61-.3.92-.08.24-.17.47-.26.71-.13.34-.28.67-.43,1.01-.1.22-.19.43-.29.65-.18.37-.37.73-.57,1.1-.1.18-.18.36-.28.53-.32.57-.67,1.13-1.05,1.7-.09.13-.18.25-.27.38-.3.43-.61.86-.94,1.29-.31.41-.63.81-.98,1.21,0,0,0,0,0,0l-.05,17.65c.29-.34.57-.68.83-1.02.05-.07.09-.13.15-.2.33-.43.64-.85.94-1.29.09-.13.19-.26.27-.39.37-.56.72-1.12,1.05-1.69.01-.03.03-.05.05-.08.09-.15.15-.31.24-.46.2-.36.39-.73.57-1.1.1-.21.19-.43.29-.65.15-.34.29-.67.43-1.01.03-.08.07-.17.1-.25.06-.15.1-.31.15-.46.11-.31.21-.61.3-.92.07-.24.14-.49.21-.73.08-.31.16-.61.22-.92.03-.12.07-.25.09-.37.05-.26.1-.53.14-.79.08-.5.14-1,.18-1.51.01-.16.02-.32.03-.48.02-.24.04-.48.04-.72,0-.18,0-.36,0-.54l.05-17.65c0,.42-.03.84-.05,1.27Z"/>
                <g>
                  <polygon class="cls-7" points="323.13 284.26 323.08 301.91 310.28 294.52 310.33 276.88 323.13 284.26"/>
                  <path class="cls-20" d="M358.41,284.27c-.54-.31-1.11-.61-1.68-.89-.19-.09-.39-.17-.59-.26-.39-.18-.78-.36-1.19-.52-.04-.02-.08-.04-.13-.06-.49-.19-.99-.37-1.5-.55-.04-.01-.07-.02-.11-.03-.46-.15-.93-.3-1.4-.44-.05-.01-.1-.02-.15-.04-.76-.21-1.54-.4-2.33-.57-.05,0-.09-.02-.14-.03-.16-.03-.32-.05-.48-.08-.55-.11-1.1-.2-1.65-.29-.12-.02-.23-.04-.35-.06-.15-.02-.31-.03-.47-.05-.49-.06-.97-.12-1.46-.16-.17-.02-.33-.04-.5-.06-.11,0-.21,0-.32-.02-.54-.04-1.08-.07-1.62-.09-.17,0-.35-.02-.52-.03-.05,0-.09,0-.14,0-.78-.02-1.56-.01-2.34.01-.03,0-.06,0-.09,0-.11,0-.21.02-.32.02-.7.03-1.4.08-2.1.14-.12.01-.24.01-.35.02-.23.02-.46.06-.69.08-.21.02-.41.05-.62.07-.49.06-.98.14-1.47.22-.12.02-.24.04-.36.06-.02,0-.05,0-.07.01-.11.02-.22.05-.33.07-.61.12-1.21.24-1.8.39-.24.06-.48.12-.72.19-.48.13-.96.26-1.43.41-.13.04-.27.07-.4.11-.29.09-.58.19-.86.29-1.64.58-3.21,1.28-4.63,2.11l-.05,17.65c1.42-.82,2.98-1.53,4.63-2.11.41-.15.84-.27,1.26-.41.47-.15.95-.28,1.43-.41.24-.06.48-.13.72-.19.59-.14,1.2-.27,1.81-.39.13-.03.27-.06.4-.08.12-.02.24-.04.36-.06.49-.08.97-.16,1.47-.22.21-.03.41-.05.62-.07.34-.04.69-.07,1.04-.11.7-.06,1.4-.11,2.1-.14.14,0,.27-.02.41-.02.78-.03,1.56-.03,2.34-.01.22,0,.44.02.66.03.54.02,1.08.05,1.61.09.27.02.55.05.82.07.49.05.98.1,1.46.16.27.04.54.07.81.11.56.08,1.1.18,1.65.29.2.04.41.07.62.12.79.17,1.56.36,2.33.57.52.15,1.04.3,1.55.47.04.01.07.02.11.03.55.19,1.09.39,1.63.6.4.16.8.34,1.19.52.2.09.4.17.59.26.58.28,1.14.57,1.68.88,3.38,1.95,5.59,4.32,6.64,6.82.48,1.14.71,2.3.71,3.46l.05-17.65c.01-3.72-2.44-7.45-7.35-10.29Z"/>
                  <path class="cls-5" d="M371.12,276.88c9.47,5.47,13.64,12.87,12.48,20.02l-17.95-1.01c.67-4.15-1.74-8.45-7.24-11.62-8.33-4.81-21.07-5.51-30.66-2.11-1.64.58-3.21,1.28-4.63,2.11l-12.8-7.38c2.45-1.43,5.14-2.63,7.98-3.64,16.52-5.85,38.47-4.64,52.82,3.64Z"/>
                  <polygon class="cls-7" points="383.6 296.9 383.55 314.55 365.6 313.53 365.65 295.89 383.6 296.9"/>
                </g>
                <path class="cls-17" d="M383.81,269.51c13.44,7.76,19.34,18.26,17.71,28.41-.68,4.24-2.7,8.41-6.02,12.3l-16.13-4.64c2.34-2.74,3.76-5.69,4.24-8.67,1.15-7.15-3.01-14.56-12.48-20.02-14.35-8.29-36.31-9.5-52.82-3.64l-9.43-8.89c23.42-8.31,54.58-6.59,74.93,5.16Z"/>
                <polygon class="cls-1" points="395.49 310.22 395.44 327.87 379.32 323.22 379.37 305.58 395.49 310.22"/>
              </g>
            </g>
            <g class="cls-22">
              <g class="cls-15">
                <polygon class="cls-14" points="361.19 98.93 361.06 145.78 293.54 106.8 293.68 59.95 361.19 98.93"/>
                <polygon class="cls-20" points="361.19 98.93 365.64 96.34 365.51 143.19 361.06 145.78 361.19 98.93"/>
                <polygon class="cls-11" points="293.68 59.95 298.13 57.36 365.64 96.34 361.19 98.93 293.68 59.95"/>
              </g>
              <g class="cls-15">
                <path class="cls-17" d="M313.28,95.14c-.02,5.71,3.22,12.42,7.72,16.66l-1.75,5.22c-6.78-6.4-11.67-16.54-11.64-25.16l5.68,3.28Z"/>
                <path class="cls-1" d="M324.47,82.26c1.79,1.03,3.51,2.34,5.12,3.87l-1.75,5.22c-1.07-1.01-2.21-1.88-3.39-2.56-6.15-3.55-11.15-.71-11.17,6.36l-5.68-3.28c.03-10.67,7.59-14.97,16.87-9.61Z"/>
                <path class="cls-8" d="M329.59,86.12c6.78,6.4,11.67,16.54,11.64,25.15-.03,10.67-7.58,14.98-16.87,9.61-1.79-1.03-3.5-2.35-5.12-3.87l1.75-5.22c1.06,1.01,2.2,1.88,3.38,2.56,6.15,3.55,11.15.7,11.17-6.37.02-5.7-3.22-12.42-7.71-16.66l1.75-5.22Z"/>
              </g>
            </g>
            <g class="cls-10">
              <polygon class="cls-8" points="423.55 202.59 423.55 205.43 436.77 213.06 436.77 210.22 423.55 202.59"/>
              <polygon class="cls-8" points="423.53 212.25 423.52 213.3 440.05 222.84 440.05 221.79 423.53 212.25"/>
              <polygon class="cls-8" points="423.53 210.34 423.53 211.38 446.04 224.38 446.04 223.34 423.53 210.34"/>
              <polygon class="cls-8" points="423.54 208.43 423.53 209.47 444.46 221.56 444.47 220.52 423.54 208.43"/>
              <polygon class="cls-8" points="440.95 194.02 440.92 207 452.21 213.52 452.25 200.54 440.95 194.02"/>
              <polygon class="cls-8" points="408.67 175.38 408.66 178.77 424.55 187.94 424.55 184.55 408.67 175.38"/>
              <polygon class="cls-8" points="384.5 166.68 384.49 168.16 424.54 191.28 424.54 189.8 384.5 166.68"/>
              <path class="cls-8" d="M416.56,197.89c-2.73-1.58-4.95-.31-4.96,2.83,0,3.14,2.2,6.96,4.93,8.54,2.73,1.58,4.95.31,4.96-2.83,0-3.14-2.2-6.96-4.93-8.54Z"/>
              <polygon class="cls-8" points="423.54 206.52 423.54 207.56 449.55 222.58 449.56 221.54 423.54 206.52"/>
              <g class="cls-15">
                <polygon class="cls-8" points="393.02 194.64 393.02 195.68 409.54 205.22 409.54 204.18 393.02 194.64"/>
                <polygon class="cls-8" points="387.04 189.27 387.03 190.31 409.54 203.31 409.55 202.27 387.04 189.27"/>
                <polygon class="cls-8" points="389.42 188.74 389.42 189.77 409.55 201.4 409.55 200.36 389.42 188.74"/>
                <polygon class="cls-8" points="392.5 188.6 392.5 189.64 409.56 199.49 409.56 198.45 392.5 188.6"/>
                <polygon class="cls-8" points="401.31 189.74 401.3 192.59 409.56 197.35 409.57 194.51 401.31 189.74"/>
              </g>
              <path class="cls-8" d="M450.3,215.62c1.05.61,1.9,2.07,1.89,3.28l-.03,10.49c0,1.21-.86,1.69-1.91,1.09l-64.2-37.07c-1.05-.61-1.9-2.08-1.9-3.28l.03-10.49c0-1.21.86-1.69,1.91-1.08l64.2,37.07ZM416.53,209.26c2.73,1.58,4.95.31,4.96-2.83,0-3.14-2.2-6.96-4.93-8.54-2.73-1.58-4.95-.31-4.96,2.83,0,3.14,2.2,6.96,4.93,8.54M423.55,205.43l13.22,7.63v-2.84s-13.21-7.63-13.21-7.63v2.84M423.54,207.56l26.01,15.02v-1.04s-26.01-15.02-26.01-15.02v1.04M423.53,211.38l22.51,13v-1.04s-22.51-13-22.51-13v1.04M387.03,190.31l22.51,13v-1.04s-22.51-13-22.51-13v1.04M409.57,194.51l-8.26-4.77v2.84s8.25,4.77,8.25,4.77v-2.84M423.53,209.47l20.93,12.08v-1.04s-20.93-12.08-20.93-12.08v1.04M409.55,200.36l-20.13-11.62v1.04s20.13,11.62,20.13,11.62v-1.04M409.56,198.45l-17.06-9.85v1.04s17.05,9.85,17.05,9.85v-1.04M393.02,195.68l16.52,9.54v-1.04s-16.52-9.54-16.52-9.54v1.04M423.52,213.3l16.52,9.54v-1.04s-16.52-9.54-16.52-9.54v1.04"/>
              <path class="cls-8" d="M433.4,189.66c-3.12-1.8-5.66-.36-5.67,3.23-.01,3.58,2.51,7.95,5.63,9.75,3.12,1.8,5.65.36,5.66-3.23.01-3.58-2.51-7.95-5.63-9.75Z"/>
              <polygon class="cls-8" points="409.33 187.28 409.33 188.76 424.52 197.53 424.52 196.05 409.33 187.28"/>
              <polygon class="cls-8" points="384.49 169.81 384.49 171.29 424.53 194.41 424.53 192.92 384.49 169.81"/>
              <path class="cls-17" d="M455.79,234.33c0,2.42-1.71,3.39-3.82,2.17l-67.66-39.06c-2.1-1.21-3.8-4.15-3.79-6.57l.1-35.41,75.27,43.45-.1,35.41ZM384.16,190.13c0,1.21.85,2.68,1.9,3.28l64.2,37.07c1.05.61,1.9.12,1.91-1.09l.03-10.49c0-1.21-.84-2.67-1.89-3.28l-64.2-37.07c-1.05-.61-1.91-.12-1.91,1.08l-.03,10.49M433.4,189.66c-3.12-1.8-5.66-.36-5.67,3.23-.01,3.58,2.51,7.95,5.63,9.75,3.12,1.8,5.65.36,5.66-3.23.01-3.58-2.51-7.95-5.63-9.75M452.25,200.54l-11.29-6.52-.04,12.98,11.29,6.52.04-12.98M424.53,192.92l-40.04-23.12v1.48s40.04,23.12,40.04,23.12v-1.48M424.54,189.8l-40.04-23.12v1.48s40.04,23.12,40.04,23.12v-1.48M424.56,184.55l-15.88-9.17v3.39s15.88,9.17,15.88,9.17v-3.39M424.52,196.05l-15.19-8.77v1.48s15.19,8.77,15.19,8.77v-1.48"/>
              <path class="cls-8" d="M452.11,189.51l-67.66-39.06c-2.1-1.21-3.81-.24-3.82,2.17v2.84s75.26,43.45,75.26,43.45v-2.84c.01-2.42-1.68-5.35-3.78-6.57Z"/>
            </g>
          </g>
        </g>
        <path class="cls-6" d="M223.74,347.31c-38.43-38.43-59.59-89.52-59.59-143.86s21.16-105.43,59.59-143.86C262.16,21.16,313.25,0,367.59,0s105.43,21.16,143.86,59.59c38.43,38.43,59.59,89.52,59.59,143.86s-21.16,105.43-59.59,143.86c-38.43,38.43-89.52,59.59-143.86,59.59s-105.43-21.16-143.86-59.59ZM224.73,60.59c-38.16,38.16-59.18,88.9-59.18,142.86s21.02,104.7,59.18,142.86c38.16,38.16,88.9,59.18,142.86,59.18s104.7-21.02,142.86-59.18c38.16-38.16,59.18-88.9,59.18-142.86s-21.02-104.7-59.18-142.86C472.3,22.43,421.56,1.41,367.59,1.41s-104.7,21.02-142.86,59.18Z"/>
        <path class="cls-19" d="M234.21,336.83c-35.63-35.63-55.25-83-55.25-133.39s19.62-97.76,55.25-133.39c35.63-35.63,83-55.25,133.39-55.25s97.76,19.62,133.39,55.25c35.63,35.63,55.25,83,55.25,133.39s-19.62,97.76-55.25,133.39c-35.63,35.63-83,55.25-133.39,55.25s-97.76-19.62-133.39-55.25ZM235.21,71.06c-35.36,35.36-54.84,82.38-54.84,132.39s19.47,97.03,54.84,132.39c35.36,35.36,82.38,54.84,132.39,54.84s97.03-19.48,132.39-54.84c35.36-35.36,54.84-82.38,54.84-132.39s-19.48-97.03-54.84-132.39c-35.36-35.36-82.38-54.84-132.39-54.84s-97.03,19.47-132.39,54.84Z"/>
      </g>
    </g>
  </g>
</svg>