<?xml version="1.0" encoding="UTF-8"?>
<svg id="Layer_1" data-name="Layer 1" xmlns="http://www.w3.org/2000/svg" viewBox="0 0 1920 1080">
  <path d="M1472.16,330.53l-98.53,257.19-143.85,88.54,85.65,56.66-103.56,264.36-498.43,2.15,257.73-664.84,501-4.06ZM1157.58,779.89l-161.28-105.88,264.53-166.51c7.48-7.7,16.23-28.94,19.08-39.41,1.13-4.17,6.8-4.17-.78-9.79l-220.17-.03-161.4,415.46,220.21-1.97c14.5-2.83,42.81-87.75,39.8-91.88Z"/>
  <polygon points="1557.46 110.54 1509.72 236.41 403.78 234.01 449.29 117.97 459.71 110.48 1557.46 110.54"/>
  <path d="M318.37,460.7l52.25-129.58,495.46-.59-260.3,666.74c-40.28,8.25-85.09-4.02-123.82,1.96-7.05,1.09-7.28.74-6.41-6.41l206.48-532.13h-363.65Z"/>
</svg>